<svg xmlns="http://www.w3.org/2000/svg" viewBox="0 0 1200 900" width="1200" height="900">
  <style>
    text { font-family: 'Helvetica Neue', Helvetica, Arial, 'PingFang SC', 'Microsoft YaHei', 'Microsoft JhengHei', 'SimHei', sans-serif; }
    .title { font-size: 22px; font-weight: 600; fill: #111827; }
    .subtitle { font-size: 12px; fill: #6b7280; }
    .h1 { font-size: 14px; font-weight: 600; fill: #111827; }
    .h2 { font-size: 13px; font-weight: 600; fill: #111827; }
    .body { font-size: 11.5px; fill: #374151; }
    .mono { font-family: 'Consolas', 'Cascadia Mono', 'Menlo', monospace; font-size: 11px; fill: #1f2937; }
    .muted { font-size: 11px; fill: #6b7280; }
    .badge { font-size: 10.5px; font-weight: 600; fill: #ffffff; }
    .label-bg { fill: #ffffff; opacity: 0.95; }
  </style>
  <defs>
    <marker id="arr-blue" markerWidth="10" markerHeight="7" refX="9" refY="3.5" orient="auto">
      <polygon points="0 0, 10 3.5, 0 7" fill="#2563eb"/>
    </marker>
    <marker id="arr-orange" markerWidth="10" markerHeight="7" refX="9" refY="3.5" orient="auto">
      <polygon points="0 0, 10 3.5, 0 7" fill="#ea580c"/>
    </marker>
    <marker id="arr-green" markerWidth="10" markerHeight="7" refX="9" refY="3.5" orient="auto">
      <polygon points="0 0, 10 3.5, 0 7" fill="#16a34a"/>
    </marker>
    <marker id="arr-purple" markerWidth="10" markerHeight="7" refX="9" refY="3.5" orient="auto">
      <polygon points="0 0, 10 3.5, 0 7" fill="#7c3aed"/>
    </marker>
    <marker id="arr-gray" markerWidth="10" markerHeight="7" refX="9" refY="3.5" orient="auto">
      <polygon points="0 0, 10 3.5, 0 7" fill="#6b7280"/>
    </marker>
    <filter id="soft" x="-10%" y="-10%" width="120%" height="120%">
      <feDropShadow dx="0" dy="1" stdDeviation="1" flood-color="#000" flood-opacity="0.06"/>
    </filter>
  </defs>

  <!-- Background -->
  <rect width="1200" height="900" fill="#ffffff"/>

  <!-- Title -->
  <text x="600" y="38" text-anchor="middle" class="title">CACP — Collaborative Agent Communication Protocol</text>
  <text x="600" y="58" text-anchor="middle" class="subtitle">Event-sourced multi-human AI room  ·  Fastify + WebSocket + SQLite  ·  Local CLI bridge</text>

  <!-- ============================ -->
  <!-- Browser tier (3 clients + web package side note) -->
  <!-- ============================ -->

  <!-- Owner browser -->
  <g filter="url(#soft)">
    <rect x="60" y="85" width="180" height="105" rx="8" fill="#eff6ff" stroke="#bfdbfe" stroke-width="1.5"/>
  </g>
  <circle cx="76" cy="100" r="3" fill="#ef4444"/>
  <circle cx="86" cy="100" r="3" fill="#f59e0b"/>
  <circle cx="96" cy="100" r="3" fill="#22c55e"/>
  <line x1="60" y1="112" x2="240" y2="112" stroke="#bfdbfe" stroke-width="1"/>
  <text x="150" y="135" text-anchor="middle" class="h2">Owner (browser)</text>
  <text x="150" y="153" text-anchor="middle" class="body">@cacp/web · React 19</text>
  <text x="150" y="170" text-anchor="middle" class="muted">deriveRoomState · Composer</text>
  <text x="150" y="184" text-anchor="middle" class="muted">Roundtable Mode toggle</text>

  <!-- Member browser -->
  <g filter="url(#soft)">
    <rect x="260" y="85" width="180" height="105" rx="8" fill="#eff6ff" stroke="#bfdbfe" stroke-width="1.5"/>
  </g>
  <circle cx="276" cy="100" r="3" fill="#ef4444"/>
  <circle cx="286" cy="100" r="3" fill="#f59e0b"/>
  <circle cx="296" cy="100" r="3" fill="#22c55e"/>
  <line x1="260" y1="112" x2="440" y2="112" stroke="#bfdbfe" stroke-width="1"/>
  <text x="350" y="135" text-anchor="middle" class="h2">Member (browser)</text>
  <text x="350" y="153" text-anchor="middle" class="body">@cacp/web · React 19</text>
  <text x="350" y="170" text-anchor="middle" class="muted">post messages · join via</text>
  <text x="350" y="184" text-anchor="middle" class="muted">invite token</text>

  <!-- Observer browser -->
  <g filter="url(#soft)">
    <rect x="460" y="85" width="180" height="105" rx="8" fill="#f9fafb" stroke="#d1d5db" stroke-width="1.5"/>
  </g>
  <circle cx="476" cy="100" r="3" fill="#ef4444"/>
  <circle cx="486" cy="100" r="3" fill="#f59e0b"/>
  <circle cx="496" cy="100" r="3" fill="#22c55e"/>
  <line x1="460" y1="112" x2="640" y2="112" stroke="#d1d5db" stroke-width="1"/>
  <text x="550" y="135" text-anchor="middle" class="h2">Observer (browser)</text>
  <text x="550" y="153" text-anchor="middle" class="body">@cacp/web · React 19</text>
  <text x="550" y="170" text-anchor="middle" class="muted">read-only · WS replay</text>
  <text x="550" y="184" text-anchor="middle" class="muted">no message rights</text>

  <!-- @cacp/web package side note -->
  <g filter="url(#soft)">
    <rect x="680" y="85" width="460" height="105" rx="8" fill="#faf5ff" stroke="#d8b4fe" stroke-width="1.5"/>
  </g>
  <text x="700" y="108" class="h1">@cacp/web — React 19 + Vite (single-page room UI)</text>
  <text x="700" y="128" class="body">Workspace = Header + Thread + Composer + MobileDrawer(Sidebar)</text>
  <text x="700" y="145" class="body">RoomState derived from event stream (room-state.ts):</text>
  <text x="700" y="161" class="mono">participants · agents · activeAgentId · messages ·</text>
  <text x="700" y="177" class="mono">streamingTurns · activeCollection · collectionHistory</text>

  <!-- ============================ -->
  <!-- Server container (left) -->
  <!-- ============================ -->

  <!-- Server outer container -->
  <rect x="40" y="210" width="620" height="470" rx="10" fill="#fefefe" stroke="#9ca3af" stroke-width="1.5" stroke-dasharray="6 4"/>
  <!-- title tab placed in a clear lane (between Member arrows at x≈350 and Observer arrow at x=550) -->
  <rect x="395" y="212" width="150" height="26" rx="6" fill="#1f2937" stroke="none"/>
  <text x="470" y="229" text-anchor="middle" class="badge">@cacp/server  ·  :3737</text>

  <!-- HTTP REST sub-rect -->
  <g filter="url(#soft)">
    <rect x="60" y="255" width="320" height="78" rx="8" fill="#fff7ed" stroke="#fed7aa" stroke-width="1.5"/>
  </g>
  <text x="72" y="273" class="h2">HTTPS REST</text>
  <text x="220" y="273" text-anchor="end" class="muted">Authorization: Bearer &lt;token&gt;</text>
  <line x1="60" y1="280" x2="380" y2="280" stroke="#fed7aa" stroke-width="1"/>
  <text x="72" y="295" class="mono">POST /rooms · /invites · /join · /messages</text>
  <text x="72" y="310" class="mono">POST /ai-collection/{start,submit,cancel}</text>
  <text x="72" y="325" class="mono">POST /agent-pairings · /agent-pairings/start-local</text>

  <!-- WebSocket sub-rect -->
  <g filter="url(#soft)">
    <rect x="400" y="255" width="240" height="78" rx="8" fill="#fff7ed" stroke="#fed7aa" stroke-width="1.5"/>
  </g>
  <text x="412" y="273" class="h2">WebSocket</text>
  <line x1="400" y1="280" x2="640" y2="280" stroke="#fed7aa" stroke-width="1"/>
  <text x="412" y="295" class="mono">GET /rooms/:id/stream</text>
  <text x="412" y="310" class="mono">    ?token=&lt;participantToken&gt;</text>
  <text x="412" y="325" class="muted">server → client event push (replay + live)</text>

  <!-- Auth lane -->
  <g filter="url(#soft)">
    <rect x="60" y="345" width="580" height="40" rx="8" fill="#faf5ff" stroke="#d8b4fe" stroke-width="1.5"/>
  </g>
  <text x="72" y="362" class="h2">auth.ts</text>
  <text x="130" y="362" class="body">resolves token → StoredParticipant; gates routes via</text>
  <text x="72" y="378" class="mono">hasAnyRole(p, [...])  ·  hasHumanRole(p, [...])     roles: owner &gt; admin &gt; member &gt; observer  ·  agent</text>

  <!-- Derivers lane -->
  <g filter="url(#soft)">
    <rect x="60" y="397" width="580" height="80" rx="8" fill="#f0fdf4" stroke="#bbf7d0" stroke-width="1.5"/>
  </g>
  <text x="72" y="414" class="h2">conversation.ts — pure derivers from the event log (single source of truth)</text>
  <text x="72" y="432" class="mono">findActiveAgentId · findOpenTurn · hasQueuedFollowup · eventsAfterLastHistoryClear</text>
  <text x="72" y="448" class="mono">recentConversationMessages · buildAgentContextPrompt · buildCollectedAnswersPrompt</text>
  <text x="72" y="467" class="muted">Single funnel: createAgentTurnRequestEvents → emits agent.turn.requested OR agent.turn.followup_queued</text>

  <!-- EventStore -->
  <g filter="url(#soft)">
    <rect x="60" y="492" width="180" height="80" rx="8" fill="#eff6ff" stroke="#bfdbfe" stroke-width="1.5"/>
  </g>
  <text x="150" y="510" text-anchor="middle" class="h2">EventStore</text>
  <text x="150" y="528" text-anchor="middle" class="body">zod validate</text>
  <text x="150" y="543" text-anchor="middle" class="mono">CacpEventSchema.parse</text>
  <text x="150" y="560" text-anchor="middle" class="muted">→ append-only INSERT</text>

  <!-- EventBus -->
  <g filter="url(#soft)">
    <rect x="260" y="492" width="180" height="80" rx="8" fill="#fef2f2" stroke="#fecaca" stroke-width="1.5"/>
  </g>
  <text x="350" y="510" text-anchor="middle" class="h2">EventBus</text>
  <text x="350" y="528" text-anchor="middle" class="body">in-memory pub/sub</text>
  <text x="350" y="543" text-anchor="middle" class="mono">Map&lt;roomId, Set&lt;Listener&gt;&gt;</text>
  <text x="350" y="560" text-anchor="middle" class="muted">fan-out to WS sockets</text>

  <!-- LocalAgentLauncher -->
  <g filter="url(#soft)">
    <rect x="460" y="492" width="180" height="80" rx="8" fill="#faf5ff" stroke="#d8b4fe" stroke-width="1.5"/>
  </g>
  <text x="550" y="510" text-anchor="middle" class="h2">LocalAgentLauncher</text>
  <text x="550" y="528" text-anchor="middle" class="body">spawn adapter process</text>
  <text x="550" y="543" text-anchor="middle" class="muted">Win: PowerShell console</text>
  <text x="550" y="560" text-anchor="middle" class="muted">other: detached child</text>

  <!-- Server bottom note -->
  <rect x="60" y="592" width="580" height="78" rx="8" fill="#fafafa" stroke="#e5e7eb" stroke-width="1" stroke-dasharray="3 3"/>
  <text x="72" y="610" class="h2">Roundtable Mode (owner-approved batch turn)</text>
  <text x="72" y="628" class="body">while collection active: human messages tagged with collection_id, broadcast live but no agent turn.</text>
  <text x="72" y="644" class="body">on submit → buildCollectedAnswersPrompt merges all queued answers into one agent.turn.requested.</text>
  <text x="72" y="660" class="muted">If a turn is in-flight, new messages append agent.turn.followup_queued instead of starting parallel turn.</text>

  <!-- ============================ -->
  <!-- Adapter container (right) -->
  <!-- ============================ -->

  <rect x="680" y="210" width="460" height="470" rx="10" fill="#fefefe" stroke="#9ca3af" stroke-width="1.5" stroke-dasharray="6 4"/>
  <rect x="680" y="210" width="460" height="32" rx="10" fill="#f3f4f6" stroke="none"/>
  <text x="910" y="232" text-anchor="middle" class="h1">@cacp/cli-adapter  ·  Node bridge process (one per agent)</text>

  <!-- Startup mode -->
  <g filter="url(#soft)">
    <rect x="700" y="255" width="420" height="70" rx="8" fill="#fff7ed" stroke="#fed7aa" stroke-width="1.5"/>
  </g>
  <text x="712" y="273" class="h2">Startup modes  ·  config.ts</text>
  <text x="712" y="291" class="mono">file:  cacp-cli-adapter [config.json]</text>
  <text x="712" y="307" class="mono">pair:  cacp-cli-adapter --server &lt;url&gt; --pair &lt;pairing_token&gt;</text>
  <text x="712" y="321" class="muted">pair → POST /agent-pairings/:token/claim → agent_token</text>

  <!-- Runtime loop -->
  <g filter="url(#soft)">
    <rect x="700" y="335" width="420" height="80" rx="8" fill="#f0fdf4" stroke="#bbf7d0" stroke-width="1.5"/>
  </g>
  <text x="712" y="353" class="h2">Runtime loop  ·  index.ts + runner.ts</text>
  <text x="712" y="371" class="body">1. open WS /rooms/:id/stream?token=&lt;agent_token&gt;</text>
  <text x="712" y="386" class="body">2. on agent.turn.requested → spawn local CLI (prompt via stdin)</text>
  <text x="712" y="401" class="body">3. stream stdout → POST /agent-turns/:id/delta</text>
  <text x="712" y="412" class="muted">4. exit → POST /complete {final_text} or /fail {error}</text>

  <!-- 4 CLI processes -->
  <g filter="url(#soft)">
    <rect x="700" y="430" width="200" height="115" rx="8" fill="#eff6ff" stroke="#bfdbfe" stroke-width="1.5"/>
  </g>
  <text x="800" y="448" text-anchor="middle" class="h2">claude-code</text>
  <text x="800" y="464" text-anchor="middle" class="mono">claude -p --output-format text</text>
  <text x="800" y="479" text-anchor="middle" class="mono">--no-session-persistence</text>
  <text x="800" y="497" text-anchor="middle" class="muted">permission-mode (per level):</text>
  <text x="800" y="512" text-anchor="middle" class="mono">dontAsk · acceptEdits · bypass</text>
  <text x="800" y="530" text-anchor="middle" class="muted">+ --append-system-prompt</text>

  <g filter="url(#soft)">
    <rect x="920" y="430" width="200" height="115" rx="8" fill="#eff6ff" stroke="#bfdbfe" stroke-width="1.5"/>
  </g>
  <text x="1020" y="448" text-anchor="middle" class="h2">codex</text>
  <text x="1020" y="466" text-anchor="middle" class="mono">codex exec -</text>
  <text x="1020" y="488" text-anchor="middle" class="muted">prompt via stdin</text>
  <text x="1020" y="510" text-anchor="middle" class="muted">capabilities:</text>
  <text x="1020" y="526" text-anchor="middle" class="mono">[codex, &lt;level&gt;]</text>

  <g filter="url(#soft)">
    <rect x="700" y="560" width="200" height="105" rx="8" fill="#eff6ff" stroke="#bfdbfe" stroke-width="1.5"/>
  </g>
  <text x="800" y="578" text-anchor="middle" class="h2">opencode</text>
  <text x="800" y="596" text-anchor="middle" class="mono">opencode run -</text>
  <text x="800" y="618" text-anchor="middle" class="muted">prompt via stdin</text>
  <text x="800" y="638" text-anchor="middle" class="muted">capabilities:</text>
  <text x="800" y="654" text-anchor="middle" class="mono">[opencode, &lt;level&gt;]</text>

  <g filter="url(#soft)">
    <rect x="920" y="560" width="200" height="105" rx="8" fill="#f9fafb" stroke="#d1d5db" stroke-width="1.5"/>
  </g>
  <text x="1020" y="578" text-anchor="middle" class="h2">echo (test stub)</text>
  <text x="1020" y="596" text-anchor="middle" class="mono">node -e ...</text>
  <text x="1020" y="618" text-anchor="middle" class="muted">prefixes prompt with</text>
  <text x="1020" y="634" text-anchor="middle" class="mono">"agent:"</text>
  <text x="1020" y="654" text-anchor="middle" class="muted">used in e2e tests</text>

  <!-- ============================ -->
  <!-- Storage row -->
  <!-- ============================ -->

  <!-- SQLite cylinder -->
  <g filter="url(#soft)">
    <path d="M 80,720 a 120,15 0 0 0 240,0 v 75 a 120,15 0 0 1 -240,0 z"
          fill="#f0fdfa" stroke="#5eead4" stroke-width="1.5"/>
    <ellipse cx="200" cy="720" rx="120" ry="15" fill="#ccfbf1" stroke="#5eead4" stroke-width="1.5"/>
  </g>
  <text x="200" y="725" text-anchor="middle" class="h2">SQLite  ·  cacp.db</text>
  <text x="200" y="754" text-anchor="middle" class="mono">events  (sequence, event_id, room_id,</text>
  <text x="200" y="769" text-anchor="middle" class="mono">         type, actor_id, event_json)</text>
  <text x="200" y="787" text-anchor="middle" class="mono">participants  (token, role, type)</text>

  <!-- Protocol annotation -->
  <g filter="url(#soft)">
    <rect x="380" y="700" width="760" height="100" rx="8" fill="#faf5ff" stroke="#d8b4fe" stroke-width="1.5"/>
  </g>
  <text x="395" y="722" class="h1">@cacp/protocol — shared zod schemas (workspace:*  ·  must build before others run)</text>
  <text x="395" y="745" class="mono">CacpEventSchema  ·  EventTypeSchema  ·  RoleSchema  ·  ProtocolVersionSchema (0.1.0 | 0.2.0)</text>
  <text x="395" y="765" class="body">Event categories:  participant.* · message.created · agent.turn.* · ai.collection.* · room.* · proposal.* (legacy)</text>
  <text x="395" y="785" class="muted">Imported by @cacp/server, @cacp/web, @cacp/cli-adapter — runtime validates every appendEvent + every WS frame.</text>

  <!-- ============================ -->
  <!-- Arrows -->
  <!-- ============================ -->

  <!-- Browsers DOWN to API band (REST writes / WS receive). Use bidirectional with separate arrows. -->
  <!-- Owner: REST + WS -->
  <line x1="135" y1="190" x2="135" y2="252" stroke="#2563eb" stroke-width="1.5" marker-end="url(#arr-blue)"/>
  <line x1="165" y1="252" x2="165" y2="190" stroke="#ea580c" stroke-width="1.5" marker-end="url(#arr-orange)"/>
  <rect x="116" y="207" width="68" height="14" class="label-bg" rx="2"/>
  <text x="150" y="218" text-anchor="middle" class="muted">REST · WS</text>

  <!-- Member: REST + WS -->
  <line x1="335" y1="190" x2="335" y2="252" stroke="#2563eb" stroke-width="1.5" marker-end="url(#arr-blue)"/>
  <line x1="365" y1="252" x2="365" y2="190" stroke="#ea580c" stroke-width="1.5" marker-end="url(#arr-orange)"/>
  <rect x="316" y="207" width="68" height="14" class="label-bg" rx="2"/>
  <text x="350" y="218" text-anchor="middle" class="muted">REST · WS</text>

  <!-- Observer: WS only (read-only) -->
  <line x1="550" y1="252" x2="550" y2="190" stroke="#ea580c" stroke-width="1.5" marker-end="url(#arr-orange)"/>
  <rect x="525" y="207" width="50" height="14" class="label-bg" rx="2"/>
  <text x="550" y="218" text-anchor="middle" class="muted">WS only</text>

  <!-- REST band → auth → derivers (internal flow, gray subtle) -->
  <line x1="220" y1="333" x2="220" y2="343" stroke="#6b7280" stroke-width="1" marker-end="url(#arr-gray)"/>
  <line x1="220" y1="385" x2="220" y2="395" stroke="#6b7280" stroke-width="1" marker-end="url(#arr-gray)"/>
  <line x1="220" y1="477" x2="220" y2="490" stroke="#6b7280" stroke-width="1" marker-end="url(#arr-gray)"/>

  <!-- WS band → EventBus (events delivered to subscribers) -->
  <path d="M 520,333 L 520,470 L 410,470 L 410,490" stroke="#6b7280" stroke-width="1" fill="none" marker-end="url(#arr-gray)"/>

  <!-- EventStore ↔ SQLite (write/replay) -->
  <line x1="135" y1="572" x2="135" y2="717" stroke="#16a34a" stroke-width="2" marker-end="url(#arr-green)"/>
  <line x1="165" y1="717" x2="165" y2="572" stroke="#16a34a" stroke-width="2" stroke-dasharray="5 3" marker-end="url(#arr-green)"/>
  <rect x="100" y="638" width="100" height="14" class="label-bg" rx="2"/>
  <text x="150" y="649" text-anchor="middle" class="muted">append / replay</text>

  <!-- LocalAgentLauncher → adapter container (spawn). Three parallel verticals in the gap (x=660..680). -->
  <path d="M 640,532 L 672,532 L 672,290 L 680,290" stroke="#7c3aed" stroke-width="1.8" fill="none" stroke-dasharray="6 3" marker-end="url(#arr-purple)"/>
  <rect x="613" y="455" width="84" height="14" class="label-bg" rx="2"/>
  <text x="655" y="466" text-anchor="middle" class="muted">spawn (PS/Node)</text>

  <!-- Adapter ↔ Server WS / REST. Two arrows between server and adapter, parallel in the gap. -->
  <!-- WS subscribe (orange) — server WS sub-rect → adapter Runtime -->
  <path d="M 640,295 L 668,295 L 668,370 L 680,370" stroke="#ea580c" stroke-width="1.8" fill="none" marker-end="url(#arr-orange)"/>
  <rect x="640" y="332" width="60" height="14" class="label-bg" rx="2"/>
  <text x="670" y="343" text-anchor="middle" class="muted">WS events</text>
  <!-- REST POST delta/complete (blue) — adapter Runtime → server REST sub-rect (enters from top to avoid crossing WS sub-rect) -->
  <path d="M 680,395 L 676,395 L 676,248 L 220,248 L 220,253" stroke="#2563eb" stroke-width="1.5" fill="none" marker-end="url(#arr-blue)"/>
  <rect x="290" y="241" width="140" height="14" class="label-bg" rx="2"/>
  <text x="360" y="252" text-anchor="middle" class="muted">POST delta · complete</text>

  <!-- Adapter runtime loop → 4 CLI tiles (spawn arrows, purple dashed) -->
  <line x1="800" y1="415" x2="800" y2="429" stroke="#7c3aed" stroke-width="1.5" stroke-dasharray="5 3" marker-end="url(#arr-purple)"/>
  <line x1="1020" y1="415" x2="1020" y2="429" stroke="#7c3aed" stroke-width="1.5" stroke-dasharray="5 3" marker-end="url(#arr-purple)"/>
  <line x1="800" y1="545" x2="800" y2="559" stroke="#7c3aed" stroke-width="1.5" stroke-dasharray="5 3" marker-end="url(#arr-purple)"/>
  <line x1="1020" y1="545" x2="1020" y2="559" stroke="#7c3aed" stroke-width="1.5" stroke-dasharray="5 3" marker-end="url(#arr-purple)"/>

  <!-- ============================ -->
  <!-- Legend -->
  <!-- ============================ -->

  <g transform="translate(40, 825)">
    <text x="0" y="0" class="h2">Legend</text>
    <line x1="0" y1="22" x2="34" y2="22" stroke="#2563eb" stroke-width="1.8" marker-end="url(#arr-blue)"/>
    <text x="44" y="26" class="muted">REST request (HTTP/JSON)</text>

    <line x1="240" y1="22" x2="274" y2="22" stroke="#ea580c" stroke-width="1.8" marker-end="url(#arr-orange)"/>
    <text x="284" y="26" class="muted">WebSocket event push (server → client)</text>

    <line x1="540" y1="22" x2="574" y2="22" stroke="#16a34a" stroke-width="2" marker-end="url(#arr-green)"/>
    <text x="584" y="26" class="muted">SQLite append</text>

    <line x1="700" y1="22" x2="734" y2="22" stroke="#16a34a" stroke-width="2" stroke-dasharray="5 3" marker-end="url(#arr-green)"/>
    <text x="744" y="26" class="muted">SQLite replay on connect</text>

    <line x1="930" y1="22" x2="964" y2="22" stroke="#7c3aed" stroke-width="1.8" stroke-dasharray="5 3" marker-end="url(#arr-purple)"/>
    <text x="974" y="26" class="muted">Process spawn (subprocess)</text>

    <line x1="0" y1="46" x2="34" y2="46" stroke="#6b7280" stroke-width="1" marker-end="url(#arr-gray)"/>
    <text x="44" y="50" class="muted">Internal call (route → auth → store/bus)</text>
  </g>
</svg>
